<svg xmlns="http://www.w3.org/2000/svg" version="1.1" xmlns:xlink="http://www.w3.org/1999/xlink" xmlns:svgjs="http://svgjs.dev/svgjs" width="2000" height="1500" viewBox="0 0 2000 1500"><rect width="2000" height="1500" fill="#6936f5"></rect><g transform="matrix(0.75,0,0,0.75,249.090909090909,457.84090415882883)"><svg viewBox="0 0 396 154" data-background-color="#6936f5" preserveAspectRatio="xMidYMid meet" height="777" width="2000" xmlns="http://www.w3.org/2000/svg" xmlns:xlink="http://www.w3.org/1999/xlink"><g id="tight-bounds" transform="matrix(1,0,0,1,0.2400000000000091,0.2072085105797612)"><svg viewBox="0 0 395.52 153.58558297884048" height="153.58558297884048" width="395.52"><g><svg viewBox="0 0 636.5997517714285 247.2" height="153.58558297884048" width="395.52"><g><svg viewBox="0 0 357.3805714285714 247.2" height="247.2" width="357.3805714285714"><g id="textblocktransform"><svg viewBox="0 0 357.3805714285714 247.2" height="247.2" width="357.3805714285714" id="textblock"><g><svg viewBox="0 0 357.3805714285714 247.2" height="247.2" width="357.3805714285714"><g transform="matrix(1,0,0,1,0,0)"><svg width="357.3805714285714" viewBox="3.85 -35 50.6 35" height="247.2" data-palette-color="#ffffff"><path d="M10.25 0L3.85 0 3.85-35 16.3-35Q20.33-35 23.1-33.8 25.88-32.6 27.31-30.1 28.75-27.6 28.75-23.7L28.75-23.7Q28.75-19.75 27.33-17.19 25.9-14.63 23.15-13.39 20.4-12.15 16.45-12.15L16.45-12.15 10.25-12.15 10.25 0ZM10.25-29.65L10.25-17.5 15.7-17.5Q18.98-17.5 20.61-18.98 22.25-20.45 22.25-23.6L22.25-23.6Q22.25-26.75 20.59-28.2 18.93-29.65 15.55-29.65L15.55-29.65 10.25-29.65ZM54.45 0L33.65 0 33.65-35 40.05-35 40.05-5.7 54.45-5.7 54.45 0Z" opacity="1" transform="matrix(1,0,0,1,0,0)" fill="#ffffff" class="undefined-text-0" data-fill-palette-color="primary" id="text-0"></path></svg></g></svg></g></svg></g></svg></g><g transform="matrix(1,0,0,1,415.73855862857135,13.169403428571442)"><svg viewBox="0 0 220.8611931428571 220.8611931428571" height="220.8611931428571" width="220.8611931428571"><g data-palette-color="#ffffff"><rect width="60.36872612571428" height="220.8611931428571" fill="#ffffff" stroke="transparent" data-fill-palette-color="accent" x="0" fill-opacity="1"></rect><rect width="60.36872612571428" height="220.8611931428571" fill="#ffffff" stroke="transparent" data-fill-palette-color="accent" x="73.6203977142857" fill-opacity="0.75"></rect><rect width="60.36872612571428" height="220.8611931428571" fill="#ffffff" stroke="transparent" data-fill-palette-color="accent" x="147.2407954285714" fill-opacity="0.5"></rect></g></svg></g></svg></g><defs></defs></svg><rect width="395.52" height="153.58558297884048" fill="none" stroke="none" visibility="hidden"></rect></g></svg></g></svg>